<?xml version="1.0" standalone="no"?>
<!DOCTYPE svg PUBLIC "-//W3C//DTD SVG 20010904//EN"
 "http://www.w3.org/TR/2001/REC-SVG-20010904/DTD/svg10.dtd">
<svg version="1.0" xmlns="http://www.w3.org/2000/svg"
 width="512.000000pt" height="512.000000pt" viewBox="0 0 512.000000 512.000000"
 preserveAspectRatio="xMidYMid meet">

<g transform="translate(0.000000,512.000000) scale(0.100000,-0.100000)"
fill="#000000" stroke="none">
<path d="M2410 4660 l0 -150 150 0 150 0 0 150 0 150 -150 0 -150 0 0 -150z"/>
<path d="M1285 4469 c-65 -38 -121 -72 -124 -74 -6 -6 132 -246 145 -251 9 -4
225 115 248 136 8 8 -131 260 -143 260 -3 -1 -60 -32 -126 -71z"/>
<path d="M3640 4414 c-39 -70 -68 -130 -63 -134 21 -21 238 -140 247 -137 10
4 146 236 146 249 0 5 -245 148 -254 148 -2 0 -36 -57 -76 -126z"/>
<path d="M2351 4199 c-292 -31 -612 -146 -861 -309 -407 -268 -707 -680 -824
-1132 -49 -190 -60 -280 -60 -498 0 -218 11 -308 60 -498 139 -535 525 -1001
1039 -1253 1029 -504 2273 -10 2690 1069 85 222 119 414 119 682 0 154 -5 230
-18 305 -40 220 -93 382 -187 568 -366 724 -1149 1150 -1958 1066z m-51 -1464
l475 -475 -108 -107 -107 -108 -477 477 -478 478 105 105 c58 58 107 105 110
105 3 0 219 -214 480 -475z"/>
<path d="M342 3536 c-40 -69 -72 -127 -72 -129 0 -2 57 -37 127 -77 120 -70
127 -72 140 -54 18 25 133 229 133 237 0 6 -212 131 -240 142 -12 4 -34 -26
-88 -119z"/>
<path d="M4580 3594 c-63 -36 -119 -69 -124 -74 -5 -5 17 -55 52 -117 94 -166
68 -158 215 -73 70 40 127 75 127 77 0 9 -144 253 -149 253 -3 0 -58 -30 -121
-66z"/>
<path d="M0 2260 l0 -150 150 0 150 0 0 150 0 150 -150 0 -150 0 0 -150z"/>
<path d="M4820 2260 l0 -150 150 0 150 0 0 150 0 150 -150 0 -150 0 0 -150z"/>
<path d="M397 1191 c-65 -38 -121 -72 -124 -74 -2 -3 28 -62 69 -131 53 -93
77 -125 88 -121 35 14 240 137 240 145 0 14 -137 244 -146 247 -5 1 -62 -29
-127 -66z"/>
<path d="M4525 1145 c-37 -64 -68 -123 -69 -131 -1 -11 41 -40 119 -85 66 -38
123 -69 126 -69 6 0 149 243 149 253 0 5 -245 147 -253 147 -3 0 -36 -52 -72
-115z"/>
</g>
</svg>
